<svg xmlns="http://www.w3.org/2000/svg" viewBox="0 0 28 28" width="28" height="28" style="color: white;" fill="none"><path fill="currentColor" d="M17 17h1v6h-1v-6zM17 2h1v5h-1V2z"></path><path fill="currentColor" d="M16 17h3V8h-3v9zM15 7h5v11h-5V7zM10 5h1v5h-1V5zM10 22h1v3h-1v-3z"></path><path fill="currentColor" d="M9 21h3V10H9v11zM8 9h5v13H8V9z"></path><path fill="currentColor" fill-rule="evenodd" clip-rule="evenodd" d="M25.27 9.42L14.1 16.53l-6.98-1.5L5.3 16.4l-.6-.8 2.18-1.64 7.02 1.5 10.83-6.88.54.84z"></path><path fill="currentColor" fill-rule="evenodd" clip-rule="evenodd" d="M4 18a1 1 0 1 0 0-2 1 1 0 0 0 0 2zm0 1a2 2 0 1 0 0-4 2 2 0 0 0 0 4z"></path></svg>